<svg width="184" height="57" viewBox="0 0 184 57" fill="none" xmlns="http://www.w3.org/2000/svg">
<g filter="url(#filter0_d_1_2)">
<path d="M33.321 13.536L4.881 27.216V31.536L33.321 45.216V39.96L10.353 29.376L33.321 18.792V13.536ZM54.2599 3.944C51.9985 3.944 50.2492 4.22133 49.0119 4.776C47.7745 5.33067 46.8785 6.12 46.3239 7.144C45.8119 8.168 45.4919 9.40533 45.3639 10.856C45.2785 12.3493 45.2359 13.992 45.2359 15.784C45.2359 17.6613 45.1079 19.1973 44.8519 20.392C44.5959 21.6293 44.0839 22.5467 43.3159 23.144C42.5905 23.7413 41.4599 24.04 39.9239 24.04V28.008C41.4172 28.008 42.5479 28.3067 43.3159 28.904C44.0839 29.544 44.5959 30.4827 44.8519 31.72C45.1079 32.9573 45.2359 34.4933 45.2359 36.328C45.2359 38.12 45.2785 39.72 45.3639 41.128C45.4919 42.5787 45.8119 43.816 46.3239 44.84C46.8359 45.9067 47.7105 46.7173 48.9479 47.272C50.1852 47.8267 51.9345 48.104 54.1959 48.104H56.8839V44.2C55.2625 44.2 54.0252 44.0507 53.1719 43.752C52.3185 43.496 51.7425 43.0053 51.4439 42.28C51.1879 41.5973 51.0599 40.5733 51.0599 39.208C51.0599 36.8187 50.9959 34.8347 50.8679 33.256C50.7825 31.72 50.5479 30.4613 50.1639 29.48C49.8225 28.5413 49.2679 27.7947 48.4999 27.24C47.7319 26.728 46.6865 26.3227 45.3639 26.024C46.6012 25.6827 47.5825 25.256 48.3079 24.744C49.0759 24.232 49.6519 23.528 50.0359 22.632C50.4199 21.7787 50.6759 20.6267 50.8039 19.176C50.9319 17.768 50.9959 15.976 50.9959 13.8C50.9959 12.136 51.1025 10.856 51.3159 9.96C51.5719 9.10667 52.1052 8.552 52.9159 8.296C53.7692 7.99733 55.0919 7.848 56.8839 7.848V3.944H54.2599ZM109.756 3.944V7.848C111.548 7.848 112.849 7.99733 113.66 8.296C114.513 8.552 115.047 9.10667 115.26 9.96C115.473 10.8133 115.58 12.0507 115.58 13.672C115.58 15.8907 115.644 17.704 115.772 19.112C115.943 20.5627 116.22 21.736 116.604 22.632C116.988 23.528 117.543 24.232 118.268 24.744C119.036 25.256 120.039 25.6827 121.276 26.024C119.953 26.3227 118.908 26.728 118.14 27.24C117.415 27.7947 116.86 28.5413 116.476 29.48C116.092 30.4613 115.836 31.72 115.708 33.256C115.623 34.8347 115.58 36.8187 115.58 39.208C115.58 40.5733 115.431 41.5973 115.132 42.28C114.876 43.0053 114.321 43.496 113.468 43.752C112.657 44.0507 111.42 44.2 109.756 44.2V48.104H112.444C114.663 48.104 116.391 47.8267 117.628 47.272C118.865 46.7173 119.74 45.9067 120.252 44.84C120.807 43.816 121.127 42.5787 121.212 41.128C121.34 39.72 121.404 38.12 121.404 36.328C121.404 34.4933 121.532 32.9573 121.788 31.72C122.044 30.4827 122.556 29.544 123.324 28.904C124.092 28.3067 125.223 28.008 126.716 28.008V24.04C125.223 24.04 124.092 23.7413 123.324 23.144C122.556 22.5467 122.044 21.6293 121.788 20.392C121.532 19.1973 121.404 17.6613 121.404 15.784C121.404 13.992 121.34 12.3493 121.212 10.856C121.127 9.40533 120.807 8.168 120.252 7.144C119.74 6.12 118.865 5.33067 117.628 4.776C116.391 4.22133 114.663 3.944 112.444 3.944H109.756ZM129.062 0.04L147.174 47.272H152.486L134.374 0.04H129.062ZM154.064 13.032V17.704L174.416 27.112L154.064 36.52V41.192L179.344 29.032V25.192L154.064 13.032Z" fill="#3380AB" fill-opacity="0.55"/>
<path d="M82.9494 19.24L81.7974 35.688V46.824H87.8774V35.688L86.7254 19.24H82.9494ZM84.8694 8.552C83.76 8.552 82.8427 8.89333 82.1174 9.576C81.392 10.3013 81.0294 11.1547 81.0294 12.136C81.0294 13.2027 81.392 14.0773 82.1174 14.76C82.8427 15.4427 83.76 15.784 84.8694 15.784C86.0214 15.784 86.96 15.4427 87.6854 14.76C88.4107 14.0773 88.7734 13.2027 88.7734 12.136C88.7734 11.1547 88.4107 10.3013 87.6854 9.576C86.96 8.89333 86.0214 8.552 84.8694 8.552Z" fill="#E10B0B" fill-opacity="0.55"/>
</g>
<defs>
<filter id="filter0_d_1_2" x="0.880997" y="0.0400009" width="182.463" height="56.064" filterUnits="userSpaceOnUse" color-interpolation-filters="sRGB">
<feFlood flood-opacity="0" result="BackgroundImageFix"/>
<feColorMatrix in="SourceAlpha" type="matrix" values="0 0 0 0 0 0 0 0 0 0 0 0 0 0 0 0 0 0 127 0" result="hardAlpha"/>
<feOffset dy="4"/>
<feGaussianBlur stdDeviation="2"/>
<feComposite in2="hardAlpha" operator="out"/>
<feColorMatrix type="matrix" values="0 0 0 0 0 0 0 0 0 0 0 0 0 0 0 0 0 0 0.25 0"/>
<feBlend mode="normal" in2="BackgroundImageFix" result="effect1_dropShadow_1_2"/>
<feBlend mode="normal" in="SourceGraphic" in2="effect1_dropShadow_1_2" result="shape"/>
</filter>
</defs>
</svg>
